<svg width="206" height="74" viewBox="0 0 206 74" fill="none" xmlns="http://www.w3.org/2000/svg">
<path d="M26.9614 41.5614L22.2812 73.3073L34.2526 54.6519L26.9614 41.5614Z" fill="#B08034"/>
<path d="M13.6772 55.589L22.2812 73.301L26.9401 41.6251L13.6772 55.589Z" fill="#E1B875"/>
<path d="M13.6355 55.4641L22.2855 73.3133L5.26005 59.2399L3.34897 52.3454L4.57264 48.4251L13.6355 55.4641Z" fill="#E0B46D"/>
<path d="M26.5382 12.2533L26.9501 41.6788L36.0813 13.544L26.5382 12.2533Z" fill="#885F1D"/>
<path d="M26.5453 12.2763V0.14328L36.0684 13.5512L26.5453 12.2763Z" fill="#F0DAB6"/>
<path d="M36.064 13.55L26.5453 0.14328L38.8794 10.8016L40.1531 16.8346L36.064 13.55Z" fill="#E9BE78"/>
<path d="M40.0915 56.0611L34.237 54.6441L26.9474 41.704L36.0775 13.5384L38.6701 15.636L44.4431 46.4634L40.0915 56.0611Z" fill="#9A6D25"/>
<path d="M26.5453 12.2763L10.9265 20.3874L12.4682 13.0807L26.5453 0.00921631V12.2763Z" fill="#EAC383"/>
<path d="M4.29014 33.9281L0 39.693L12.4727 13.0288L10.9544 20.333L4.29014 33.9281Z" fill="#D1AD74"/>
<path d="M10.9264 20.3874L26.5452 12.2763L26.9501 41.6376L13.7274 55.5858L4.59526 48.4931L4.02875 34.2851L10.9264 20.3874Z" fill="#C89A4F"/>
<path d="M3.35165 52.3623L0 39.6259L4.02199 34.2633L4.62529 48.3403L3.35165 52.3623Z" fill="#A0742C"/>
<path d="M34.2541 54.6414L22.2748 73.3137L46.7893 49.681L44.4513 46.4307L40.086 56.0491L34.2541 54.6414Z" fill="#B98E48"/>
<path d="M40.1698 16.8233L38.6612 15.6182L44.4357 46.4462L46.7869 49.6771L40.1698 16.8233Z" fill="#AB8549"/>
<path d="M67.4293 47.6614H69.4453C69.8293 47.6614 70.0853 47.4054 70.1813 47.1814C70.8213 45.7094 71.4933 44.2694 72.1333 42.7974H82.5973L84.5813 47.1814C84.7093 47.4694 84.9333 47.6614 85.3173 47.6614H87.3333C87.8133 47.6614 88.0693 47.2454 87.8773 46.8294L78.1173 25.2934C78.0213 25.1014 77.7333 24.9414 77.5733 24.9414H77.2533C77.0933 24.9414 76.8053 25.1014 76.7093 25.2934L66.8853 46.8294C66.6933 47.2454 66.9493 47.6614 67.4293 47.6614ZM73.3813 40.0454L77.2853 31.2774H77.4453L81.3813 40.0454H73.3813ZM92.7448 46.9254C92.6808 47.3734 92.9048 47.6614 93.3528 47.6614H95.4328C95.6888 47.6614 95.9768 47.4374 96.0088 47.2134L98.3128 32.9094C98.3448 32.9094 98.4088 32.9094 98.4408 32.9094L104.233 47.6294C104.297 47.8214 104.521 47.9814 104.777 47.9814H105.353C105.641 47.9814 105.833 47.8214 105.897 47.6294L111.657 32.9094C111.657 32.9094 111.721 32.9094 111.753 32.9094L114.121 47.2134C114.185 47.4374 114.441 47.6614 114.729 47.6614H116.809C117.257 47.6614 117.481 47.3734 117.385 46.9254L113.449 25.4214C113.385 25.1654 113.129 24.9414 112.873 24.9414H112.361C112.137 24.9414 111.881 25.1014 111.817 25.2934L105.161 41.6454H105.033L98.3448 25.2934C98.2808 25.1014 97.9928 24.9414 97.8008 24.9414H97.2888C97.0328 24.9414 96.7768 25.1654 96.7128 25.4214L92.7448 46.9254ZM125.005 39.3094C125.005 44.1734 128.653 47.9814 133.677 47.9814C138.733 47.9814 142.413 44.1734 142.413 39.3094V25.8694C142.413 25.5494 142.125 25.2614 141.805 25.2614H139.661C139.309 25.2614 139.053 25.5494 139.053 25.8694V39.1494C139.053 42.3174 136.973 44.7814 133.677 44.7814C130.413 44.7814 128.365 42.2854 128.365 39.0854V25.8694C128.365 25.5494 128.109 25.2614 127.757 25.2614H125.613C125.293 25.2614 125.005 25.5494 125.005 25.8694V39.3094ZM151.525 47.0534C151.525 47.3734 151.781 47.6614 152.133 47.6614H163.525C163.877 47.6614 164.133 47.3734 164.133 47.0534V45.2934C164.133 44.9734 163.877 44.6854 163.525 44.6854H154.853V25.8694C154.853 25.5494 154.565 25.2614 154.245 25.2614H152.133C151.781 25.2614 151.525 25.5494 151.525 25.8694V47.0534ZM170.693 47.0534C170.693 47.3734 170.949 47.6614 171.301 47.6614H184.101C184.453 47.6614 184.709 47.3734 184.709 47.0534V45.2934C184.709 44.9734 184.453 44.6854 184.101 44.6854H173.989V37.8054H182.533C182.853 37.8054 183.141 37.5494 183.141 37.1974V35.4054C183.141 35.0854 182.853 34.7974 182.533 34.7974H173.989V28.2694H184.101C184.453 28.2694 184.709 27.9814 184.709 27.6614V25.8694C184.709 25.5494 184.453 25.2614 184.101 25.2614H171.301C170.949 25.2614 170.693 25.5494 170.693 25.8694V47.0534ZM195.809 47.0534C195.809 47.3734 196.097 47.6614 196.417 47.6614H198.529C198.849 47.6614 199.137 47.3734 199.137 47.0534V28.2694H204.353C204.705 28.2694 204.961 27.9814 204.961 27.6614V25.8694C204.961 25.5494 204.705 25.2614 204.353 25.2614H190.593C190.241 25.2614 189.985 25.5494 189.985 25.8694V27.6614C189.985 27.9814 190.241 28.2694 190.593 28.2694H195.809V47.0534Z" fill="black"/>
</svg>
